ffmpeg version 3.4.8-0ubuntu0.2 Copyright (c) 2000-2020 the FFmpeg developers
  built with gcc 7 (Ubuntu 7.5.0-3ubuntu1~18.04)
  configuration: --prefix=/usr --extra-version=0ubuntu0.2 --toolchain=hardened --libdir=/usr/lib/x86_64-linux-gnu --incdir=/usr/include/x86_64-linux-gnu --enable-gpl --disable-stripping --enable-avresample --enable-avisynth --enable-gnutls --enable-ladspa --enable-libass --enable-libbluray --enable-libbs2b --enable-libcaca --enable-libcdio --enable-libflite --enable-libfontconfig --enable-libfreetype --enable-libfribidi --enable-libgme --enable-libgsm --enable-libmp3lame --enable-libmysofa --enable-libopenjpeg --enable-libopenmpt --enable-libopus --enable-libpulse --enable-librubberband --enable-librsvg --enable-libshine --enable-libsnappy --enable-libsoxr --enable-libspeex --enable-libssh --enable-libtheora --enable-libtwolame --enable-libvorbis --enable-libvpx --enable-libwavpack --enable-libwebp --enable-libx265 --enable-libxml2 --enable-libxvid --enable-libzmq --enable-libzvbi --enable-omx --enable-openal --enable-opengl --enable-sdl2 --enable-libdc1394 --enable-libdrm --enable-libiec61883 --enable-chromaprint --enable-frei0r --enable-libopencv --enable-libx264 --enable-shared
  libavutil      55. 78.100 / 55. 78.100
  libavcodec     57.107.100 / 57.107.100
  libavformat    57. 83.100 / 57. 83.100
  libavdevice    57. 10.100 / 57. 10.100
  libavfilter     6.107.100 /  6.107.100
  libavresample   3.  7.  0 /  3.  7.  0
  libswscale      4.  8.100 /  4.  8.100
  libswresample   2.  9.100 /  2.  9.100
  libpostproc    54.  7.100 / 54.  7.100
[rawvideo @ 0x56149e117a20] Estimating duration from bitrate, this may be inaccurate
Input #0, rawvideo, from '../../SVC-Encoder-20220109T061506Z-001/SVC-Encoder/Dataset/RollerCoaster/ERP_8x8/tile_yuv/Tile_26_480x240.yuv':
  Duration: 00:00:10.00, start: 0.000000, bitrate: 41472 kb/s
    Stream #0:0: Video: rawvideo (I420 / 0x30323449), yuv420p, 480x240, 41472 kb/s, 30 tbr, 30 tbn, 30 tbc
Stream mapping:
  Stream #0:0 -> #0:0 (rawvideo (native) -> h264 (libx264))
Press [q] to stop, [?] for help
[libx264 @ 0x56149e124c60] using cpu capabilities: MMX2 SSE2Fast LZCNT SSSE3 SSE4.2 AVX
[libx264 @ 0x56149e124c60] profile High, level 2.1
Output #0, rawvideo, to 'RollerCoaster_Tile_26_480x240_x264_QP_28.h264':
  Metadata:
    encoder         : Lavf57.83.100
    Stream #0:0: Video: h264 (libx264), yuv420p, 480x240, q=-1--1, 30 fps, 30 tbn, 30 tbc
    Metadata:
      encoder         : Lavc57.107.100 libx264
    Side data:
      cpb: bitrate max/min/avg: 0/0/0 buffer size: 0 vbv_delay: -1
frame=  300 fps=0.0 q=34.0 LPSNR=Y:inf U:inf V:inf *:inf size=      17kB time=00:00:09.93 bitrate=  14.2kbits/s speed=33.4x    
video:17kB audio:0kB subtitle:0kB other streams:0kB global headers:0kB muxing overhead: 0.000000%
[libx264 @ 0x56149e124c60] frame I:2     Avg QP:26.89  size:  1340  PSNR Mean Y:49.87 U:52.19 V:53.08 Avg:50.60 Global:50.58
[libx264 @ 0x56149e124c60] frame P:76    Avg QP:27.86  size:   111  PSNR Mean Y:49.03 U:51.51 V:52.09 Avg:49.77 Global:49.75
[libx264 @ 0x56149e124c60] frame B:222   Avg QP:33.46  size:    29  PSNR Mean Y:48.85 U:51.50 V:52.08 Avg:49.62 Global:49.60
[libx264 @ 0x56149e124c60] consecutive B-frames:  1.0%  0.7%  1.0% 97.3%
[libx264 @ 0x56149e124c60] mb I  I16..4: 89.1%  8.4%  2.4%
[libx264 @ 0x56149e124c60] mb P  I16..4:  1.7%  0.5%  0.0%  P16..4:  6.4%  0.9%  0.1%  0.0%  0.0%    skip:90.4%
[libx264 @ 0x56149e124c60] mb B  I16..4:  0.0%  0.0%  0.0%  B16..8:  2.6%  0.1%  0.0%  direct: 0.0%  skip:97.3%  L0:44.1% L1:55.9% BI: 0.0%
[libx264 @ 0x56149e124c60] 8x8 transform intra:14.7% inter:72.1%
[libx264 @ 0x56149e124c60] coded y,uvDC,uvAC intra: 2.5% 11.2% 0.0% inter: 0.1% 0.1% 0.0%
[libx264 @ 0x56149e124c60] i16 v,h,dc,p: 35% 34% 18% 13%
[libx264 @ 0x56149e124c60] i8 v,h,dc,ddl,ddr,vr,hd,vl,hu:  9% 12% 72%  0%  1%  1%  4%  0%  0%
[libx264 @ 0x56149e124c60] i4 v,h,dc,ddl,ddr,vr,hd,vl,hu:  8% 21% 33%  1% 10%  3% 22%  1%  2%
[libx264 @ 0x56149e124c60] i8c dc,h,v,p: 73% 14% 12%  0%
[libx264 @ 0x56149e124c60] Weighted P-Frames: Y:1.3% UV:0.0%
[libx264 @ 0x56149e124c60] ref P L0: 66.4% 12.6% 15.5%  5.3%  0.2%
[libx264 @ 0x56149e124c60] ref B L0: 63.6% 29.6%  6.8%
[libx264 @ 0x56149e124c60] ref B L1: 73.9% 26.1%
[libx264 @ 0x56149e124c60] PSNR Mean Y:48.905 U:51.505 V:52.088 Avg:49.666 Global:49.642 kb/s:14.10
